<svg width="800" height="562" viewBox="0 0 800 562" fill="none" xmlns="http://www.w3.org/2000/svg">
<g filter="url(#filter0_d_407_10206)">
<rect x="60" y="60" width="640" height="402" rx="24" fill="white"/>
<rect x="61" y="61" width="638" height="400" rx="23" stroke="#EFEDFD" stroke-width="2"/>
</g>
<path d="M102.8 107.8H100.96V114.2C100.96 115.8 101.328 117.016 102.08 117.848C102.816 118.68 103.92 119.096 105.36 119.096C106.8 119.096 107.904 118.68 108.656 117.848C109.408 117.016 109.792 115.8 109.792 114.2V107.8H107.952V114.296C107.952 115.352 107.728 116.152 107.312 116.68C106.896 117.208 106.24 117.464 105.36 117.464C104.48 117.464 103.84 117.208 103.424 116.68C103.008 116.152 102.8 115.352 102.8 114.296V107.8ZM113.246 115.352L111.438 115.32C111.438 116.056 111.63 116.712 112.014 117.288C112.398 117.864 112.926 118.296 113.598 118.616C114.27 118.936 115.038 119.096 115.934 119.096C116.734 119.096 117.438 118.952 118.078 118.664C118.702 118.376 119.198 117.96 119.55 117.432C119.902 116.92 120.078 116.328 120.078 115.656C120.078 114.984 119.902 114.424 119.582 114.008C119.246 113.592 118.814 113.288 118.302 113.064C117.774 112.856 117.15 112.68 116.43 112.552C115.71 112.424 115.166 112.312 114.782 112.2C114.398 112.104 114.078 111.944 113.854 111.72C113.63 111.512 113.518 111.224 113.518 110.856C113.518 110.344 113.71 109.96 114.094 109.672C114.478 109.384 115.006 109.24 115.662 109.24C116.334 109.24 116.878 109.416 117.326 109.768C117.758 110.12 118.014 110.584 118.078 111.16H119.886C119.854 110.488 119.646 109.896 119.294 109.368C118.926 108.856 118.43 108.44 117.806 108.136C117.166 107.848 116.462 107.688 115.662 107.688C114.878 107.688 114.19 107.832 113.582 108.104C112.974 108.392 112.51 108.776 112.174 109.272C111.838 109.784 111.678 110.344 111.678 110.984C111.678 111.688 111.838 112.248 112.158 112.664C112.478 113.096 112.91 113.416 113.422 113.624C113.934 113.832 114.558 113.992 115.294 114.12C115.998 114.248 116.558 114.376 116.958 114.488C117.342 114.616 117.662 114.776 117.886 115C118.11 115.224 118.238 115.512 118.238 115.88C118.238 116.408 118.014 116.824 117.598 117.112C117.182 117.4 116.622 117.544 115.95 117.544C115.166 117.544 114.526 117.352 114.046 116.952C113.566 116.552 113.294 116.024 113.246 115.352ZM121.778 107.8V119H125.346C126.482 119 127.474 118.776 128.338 118.296C129.186 117.832 129.842 117.176 130.306 116.328C130.754 115.48 130.994 114.504 130.994 113.4C130.994 112.296 130.754 111.32 130.306 110.472C129.842 109.64 129.186 108.984 128.338 108.504C127.474 108.04 126.482 107.8 125.346 107.8H121.778ZM125.346 117.4H123.618V109.4H125.346C126.546 109.4 127.474 109.768 128.13 110.488C128.77 111.208 129.106 112.184 129.106 113.4C129.106 114.632 128.77 115.608 128.13 116.328C127.474 117.048 126.546 117.4 125.346 117.4ZM130.337 122.2H131.985L136.673 107.8H135.025L130.337 122.2ZM142.003 107.8H137.891V119H142.147C143.475 119 144.499 118.728 145.219 118.168C145.939 117.624 146.307 116.856 146.307 115.88C146.307 114.408 145.459 113.528 143.795 113.24C144.467 113.096 144.979 112.808 145.331 112.376C145.683 111.944 145.875 111.384 145.875 110.712C145.875 109.8 145.523 109.08 144.851 108.568C144.179 108.056 143.219 107.8 142.003 107.8ZM139.731 112.552V109.336H142.051C142.675 109.336 143.155 109.48 143.507 109.768C143.859 110.056 144.035 110.44 144.035 110.936C144.035 111.448 143.859 111.832 143.507 112.12C143.155 112.408 142.675 112.552 142.051 112.552H139.731ZM139.731 117.448V114.072H142.163C142.867 114.072 143.427 114.232 143.827 114.52C144.211 114.824 144.419 115.24 144.419 115.784C144.419 116.312 144.211 116.728 143.827 117.016C143.443 117.304 142.883 117.448 142.163 117.448H139.731ZM146.612 107.8V109.432H150.068V119H151.908V109.432H155.364V107.8H146.612ZM156.244 110.424C155.796 111.288 155.588 112.28 155.588 113.4C155.588 114.552 155.796 115.544 156.244 116.408C156.692 117.272 157.316 117.928 158.132 118.392C158.948 118.872 159.908 119.096 160.996 119.096C161.844 119.096 162.612 118.936 163.284 118.616C163.956 118.296 164.5 117.848 164.916 117.256C165.332 116.68 165.604 115.992 165.732 115.192H163.892C163.7 115.912 163.348 116.472 162.836 116.872C162.324 117.288 161.684 117.48 160.916 117.48C160.212 117.48 159.604 117.32 159.092 116.968C158.564 116.616 158.164 116.136 157.892 115.512C157.604 114.904 157.476 114.2 157.476 113.4C157.476 112.6 157.604 111.896 157.892 111.288C158.164 110.68 158.564 110.2 159.092 109.848C159.604 109.496 160.212 109.32 160.916 109.32C161.684 109.32 162.324 109.528 162.852 109.928C163.364 110.344 163.716 110.904 163.908 111.608H165.748C165.62 110.84 165.348 110.152 164.932 109.56C164.5 108.968 163.94 108.504 163.268 108.184C162.596 107.864 161.828 107.704 160.996 107.704C159.908 107.704 158.948 107.944 158.132 108.424C157.316 108.904 156.692 109.56 156.244 110.424Z" fill="#131316"/>
<circle opacity="0.1" cx="191" cy="113" r="8" transform="rotate(180 191 113)" fill="#131316"/>
<path d="M187.612 111.271L190.819 114.99C190.911 115.096 191.088 115.096 191.181 114.99L194.388 111.271C194.507 111.133 194.399 110.929 194.207 110.929L187.793 110.929C187.6 110.929 187.493 111.133 187.612 111.271Z" fill="#131316"/>
<rect x="100" y="166" width="1" height="216" fill="#F4F4F6"/>
<rect x="201" y="166" width="1" height="216" fill="#F4F4F6"/>
<rect x="302" y="166" width="1" height="216" fill="#F4F4F6"/>
<rect x="403" y="166" width="1" height="216" fill="#F4F4F6"/>
<rect x="504" y="166" width="1" height="216" fill="#F4F4F6"/>
<rect x="605" y="166" width="1" height="216" fill="#F4F4F6"/>
<rect x="606" y="166" width="1.00001" height="505" transform="rotate(90 606 166)" fill="#F4F4F6"/>
<rect x="606" y="213" width="1.00001" height="505" transform="rotate(90 606 213)" fill="#F4F4F6"/>
<rect x="606" y="260" width="1.00001" height="505" transform="rotate(90 606 260)" fill="#F4F4F6"/>
<rect x="606" y="307" width="1.00001" height="505" transform="rotate(90 606 307)" fill="#F4F4F6"/>
<rect x="606" y="354" width="1.00001" height="505" transform="rotate(90 606 354)" fill="#F4F4F6"/>
<rect x="606" y="401" width="1.00001" height="505" transform="rotate(90 606 401)" fill="#F4F4F6"/>
<rect x="628" y="166" width="40" height="6" rx="2" fill="#E3E3E8"/>
<rect x="628" y="208" width="40" height="6" rx="2" fill="#E3E3E8"/>
<rect x="628" y="250" width="40" height="6" rx="2" fill="#E3E3E8"/>
<rect x="628" y="292" width="40" height="6" rx="2" fill="#E3E3E8"/>
<rect x="628" y="334" width="40" height="6" rx="2" fill="#E3E3E8"/>
<rect x="628" y="376" width="40" height="6" rx="2" fill="#E3E3E8"/>
<path d="M101.404 422.904H100.36C100.348 423.936 100.6 424.716 101.104 425.256C101.608 425.808 102.34 426.072 103.276 426.072C105.232 426.072 106.216 425.004 106.216 422.844V417.6H105.172V422.868C105.172 423.648 105.004 424.212 104.692 424.572C104.38 424.932 103.9 425.112 103.276 425.112C102.664 425.112 102.196 424.92 101.884 424.536C101.56 424.152 101.404 423.6 101.404 422.904ZM113.44 425.1H113.14C112.864 425.1 112.732 424.956 112.732 424.656V422.016C112.732 421.308 112.516 420.768 112.084 420.384C111.652 420 111.052 419.808 110.272 419.808C109.528 419.808 108.928 419.976 108.472 420.312C108.016 420.648 107.752 421.116 107.68 421.716H108.664C108.724 421.404 108.892 421.164 109.168 420.972C109.444 420.78 109.792 420.684 110.224 420.684C110.704 420.684 111.076 420.804 111.34 421.02C111.604 421.248 111.748 421.56 111.748 421.956V422.376H109.948C109.144 422.376 108.532 422.544 108.112 422.868C107.692 423.204 107.488 423.672 107.488 424.284C107.488 424.836 107.692 425.28 108.1 425.592C108.508 425.916 109.06 426.072 109.744 426.072C110.632 426.072 111.316 425.736 111.796 425.052C111.796 425.364 111.892 425.604 112.06 425.76C112.228 425.928 112.504 426 112.9 426H113.44V425.1ZM111.748 423.204V423.504C111.748 424.032 111.568 424.452 111.232 424.764C110.884 425.076 110.416 425.232 109.816 425.232C109.408 425.232 109.084 425.148 108.844 424.956C108.604 424.776 108.484 424.536 108.484 424.224C108.484 423.552 108.94 423.204 109.852 423.204H111.748ZM119.045 420.48C118.589 420.036 118.001 419.808 117.257 419.808C116.369 419.808 115.697 420.108 115.241 420.708L115.109 419.88H114.257V426H115.241V422.94C115.241 422.256 115.397 421.716 115.733 421.308C116.057 420.912 116.513 420.708 117.089 420.708C117.617 420.708 118.025 420.876 118.313 421.212C118.601 421.548 118.745 422.028 118.745 422.652V426H119.729V422.592C119.729 421.632 119.501 420.936 119.045 420.48Z" fill="#9C9CAB"/>
<path d="M145.816 417.6V426H146.86V422.328H150.316V421.368H146.86V418.56H151.036V417.6H145.816ZM151.759 421.296C151.519 421.776 151.399 422.316 151.399 422.94C151.399 423.564 151.519 424.104 151.771 424.584C152.023 425.064 152.383 425.424 152.839 425.688C153.295 425.952 153.823 426.072 154.435 426.072C155.131 426.072 155.719 425.88 156.199 425.484C156.679 425.088 156.979 424.572 157.099 423.948H156.103C155.995 424.344 155.791 424.656 155.479 424.872C155.167 425.088 154.795 425.196 154.363 425.196C153.787 425.196 153.331 425.016 152.983 424.656C152.623 424.296 152.443 423.816 152.431 423.216V423.132H157.183C157.195 422.94 157.207 422.808 157.207 422.712C157.183 422.124 157.051 421.608 156.811 421.164C156.559 420.732 156.223 420.396 155.791 420.156C155.359 419.928 154.855 419.808 154.303 419.808C153.727 419.808 153.223 419.94 152.791 420.204C152.347 420.468 151.999 420.828 151.759 421.296ZM156.187 422.316H152.491C152.539 421.836 152.731 421.44 153.091 421.128C153.439 420.828 153.847 420.672 154.315 420.672C154.831 420.672 155.263 420.816 155.599 421.104C155.935 421.392 156.139 421.8 156.187 422.316ZM162.986 420.18C162.542 419.94 162.038 419.808 161.474 419.808C160.586 419.808 159.878 420.168 159.374 420.864V417.6H158.39V426H159.242L159.374 425.064C159.566 425.376 159.842 425.628 160.202 425.808C160.55 425.988 160.97 426.072 161.474 426.072C162.026 426.072 162.53 425.94 162.986 425.676C163.43 425.412 163.778 425.052 164.03 424.572C164.282 424.104 164.414 423.564 164.414 422.94C164.414 422.292 164.282 421.74 164.03 421.26C163.778 420.792 163.43 420.432 162.986 420.18ZM162.842 424.572C162.47 424.992 161.978 425.196 161.378 425.196C160.982 425.196 160.634 425.1 160.322 424.908C160.01 424.716 159.782 424.452 159.614 424.104C159.446 423.756 159.362 423.36 159.362 422.916C159.362 422.484 159.446 422.1 159.614 421.764C159.782 421.428 160.01 421.164 160.322 420.972C160.634 420.78 160.982 420.684 161.378 420.684C161.978 420.684 162.47 420.9 162.842 421.32C163.214 421.74 163.406 422.28 163.406 422.94C163.406 423.612 163.214 424.152 162.842 424.572Z" fill="#9C9CAB"/>
<path d="M189.816 417.6V426H190.836V419.376L193.62 426H194.544L197.328 419.376V426H198.348V417.6H197.052L194.112 424.572L191.136 417.6H189.816ZM205.616 425.1H205.316C205.04 425.1 204.908 424.956 204.908 424.656V422.016C204.908 421.308 204.692 420.768 204.26 420.384C203.828 420 203.228 419.808 202.448 419.808C201.704 419.808 201.104 419.976 200.648 420.312C200.192 420.648 199.928 421.116 199.856 421.716H200.84C200.9 421.404 201.068 421.164 201.344 420.972C201.62 420.78 201.968 420.684 202.4 420.684C202.88 420.684 203.252 420.804 203.516 421.02C203.78 421.248 203.924 421.56 203.924 421.956V422.376H202.124C201.32 422.376 200.708 422.544 200.288 422.868C199.868 423.204 199.664 423.672 199.664 424.284C199.664 424.836 199.868 425.28 200.276 425.592C200.684 425.916 201.236 426.072 201.92 426.072C202.808 426.072 203.492 425.736 203.972 425.052C203.972 425.364 204.068 425.604 204.236 425.76C204.404 425.928 204.68 426 205.076 426H205.616V425.1ZM203.924 423.204V423.504C203.924 424.032 203.744 424.452 203.408 424.764C203.06 425.076 202.592 425.232 201.992 425.232C201.584 425.232 201.26 425.148 201.02 424.956C200.78 424.776 200.66 424.536 200.66 424.224C200.66 423.552 201.116 423.204 202.028 423.204H203.924ZM209.541 419.88H209.265C208.761 419.88 208.377 419.964 208.101 420.132C207.813 420.3 207.585 420.528 207.417 420.804L207.285 419.88H206.433V426H207.417V422.88C207.417 422.304 207.537 421.824 207.789 421.428C208.041 421.044 208.461 420.84 209.049 420.84H209.541V419.88Z" fill="#9C9CAB"/>
<path d="M234.132 426H235.212L236.1 423.732H239.76L240.648 426H241.764L238.572 417.6H237.336L234.132 426ZM236.412 422.784L237.924 418.74L239.448 422.784H236.412ZM247.226 420.18C246.782 419.94 246.278 419.808 245.714 419.808C244.826 419.808 244.118 420.168 243.614 420.864L243.482 419.88H242.63V428.4H243.614V425.064C243.806 425.376 244.082 425.628 244.442 425.808C244.79 425.988 245.21 426.072 245.714 426.072C246.266 426.072 246.77 425.94 247.226 425.676C247.67 425.412 248.018 425.052 248.27 424.572C248.522 424.104 248.654 423.564 248.654 422.94C248.654 422.292 248.522 421.74 248.27 421.26C248.018 420.792 247.67 420.432 247.226 420.18ZM247.082 424.572C246.71 424.992 246.218 425.196 245.618 425.196C245.222 425.196 244.874 425.1 244.562 424.908C244.25 424.716 244.022 424.452 243.854 424.104C243.686 423.756 243.602 423.36 243.602 422.916C243.602 422.484 243.686 422.1 243.854 421.764C244.022 421.428 244.25 421.164 244.562 420.972C244.874 420.78 245.222 420.684 245.618 420.684C246.218 420.684 246.71 420.9 247.082 421.32C247.454 421.74 247.646 422.28 247.646 422.94C247.646 423.612 247.454 424.152 247.082 424.572ZM252.947 419.88H252.671C252.167 419.88 251.783 419.964 251.507 420.132C251.219 420.3 250.991 420.528 250.823 420.804L250.691 419.88H249.839V426H250.823V422.88C250.823 422.304 250.943 421.824 251.195 421.428C251.447 421.044 251.867 420.84 252.455 420.84H252.947V419.88Z" fill="#9C9CAB"/>
<path d="M278.816 417.6V426H279.836V419.376L282.62 426H283.544L286.328 419.376V426H287.348V417.6H286.052L283.112 424.572L280.136 417.6H278.816ZM294.616 425.1H294.316C294.04 425.1 293.908 424.956 293.908 424.656V422.016C293.908 421.308 293.692 420.768 293.26 420.384C292.828 420 292.228 419.808 291.448 419.808C290.704 419.808 290.104 419.976 289.648 420.312C289.192 420.648 288.928 421.116 288.856 421.716H289.84C289.9 421.404 290.068 421.164 290.344 420.972C290.62 420.78 290.968 420.684 291.4 420.684C291.88 420.684 292.252 420.804 292.516 421.02C292.78 421.248 292.924 421.56 292.924 421.956V422.376H291.124C290.32 422.376 289.708 422.544 289.288 422.868C288.868 423.204 288.664 423.672 288.664 424.284C288.664 424.836 288.868 425.28 289.276 425.592C289.684 425.916 290.236 426.072 290.92 426.072C291.808 426.072 292.492 425.736 292.972 425.052C292.972 425.364 293.068 425.604 293.236 425.76C293.404 425.928 293.68 426 294.076 426H294.616V425.1ZM292.924 423.204V423.504C292.924 424.032 292.744 424.452 292.408 424.764C292.06 425.076 291.592 425.232 290.992 425.232C290.584 425.232 290.26 425.148 290.02 424.956C289.78 424.776 289.66 424.536 289.66 424.224C289.66 423.552 290.116 423.204 291.028 423.204H292.924ZM295.689 419.88H294.645L297.045 426.048L296.733 426.78C296.637 426.996 296.565 427.152 296.505 427.248C296.445 427.344 296.373 427.404 296.277 427.44C296.181 427.488 296.037 427.5 295.845 427.5H294.969V428.4H296.145C296.421 428.4 296.649 428.364 296.817 428.268C296.985 428.184 297.117 428.052 297.237 427.86C297.345 427.68 297.477 427.404 297.621 427.032L300.441 419.88H299.397L297.573 424.872L295.689 419.88Z" fill="#9C9CAB"/>
<path d="M326.404 422.904H325.36C325.348 423.936 325.6 424.716 326.104 425.256C326.608 425.808 327.34 426.072 328.276 426.072C330.232 426.072 331.216 425.004 331.216 422.844V417.6H330.172V422.868C330.172 423.648 330.004 424.212 329.692 424.572C329.38 424.932 328.9 425.112 328.276 425.112C327.664 425.112 327.196 424.92 326.884 424.536C326.56 424.152 326.404 423.6 326.404 422.904ZM337.984 419.88H337V422.94C337 423.636 336.832 424.176 336.52 424.572C336.208 424.98 335.764 425.172 335.212 425.172C334.696 425.172 334.3 425.016 334.024 424.68C333.748 424.344 333.616 423.864 333.616 423.228V419.88H332.632V423.288C332.632 424.248 332.848 424.956 333.292 425.4C333.724 425.856 334.312 426.072 335.044 426.072C335.884 426.072 336.532 425.784 337 425.184L337.132 426H337.984V419.88ZM344.174 420.48C343.718 420.036 343.13 419.808 342.386 419.808C341.498 419.808 340.826 420.108 340.37 420.708L340.238 419.88H339.386V426H340.37V422.94C340.37 422.256 340.526 421.716 340.862 421.308C341.186 420.912 341.642 420.708 342.218 420.708C342.746 420.708 343.154 420.876 343.442 421.212C343.73 421.548 343.874 422.028 343.874 422.652V426H344.858V422.592C344.858 421.632 344.63 420.936 344.174 420.48Z" fill="#9C9CAB"/>
<path d="M371.404 422.904H370.36C370.348 423.936 370.6 424.716 371.104 425.256C371.608 425.808 372.34 426.072 373.276 426.072C375.232 426.072 376.216 425.004 376.216 422.844V417.6H375.172V422.868C375.172 423.648 375.004 424.212 374.692 424.572C374.38 424.932 373.9 425.112 373.276 425.112C372.664 425.112 372.196 424.92 371.884 424.536C371.56 424.152 371.404 423.6 371.404 422.904ZM382.984 419.88H382V422.94C382 423.636 381.832 424.176 381.52 424.572C381.208 424.98 380.764 425.172 380.212 425.172C379.696 425.172 379.3 425.016 379.024 424.68C378.748 424.344 378.616 423.864 378.616 423.228V419.88H377.632V423.288C377.632 424.248 377.848 424.956 378.292 425.4C378.724 425.856 379.312 426.072 380.044 426.072C380.884 426.072 381.532 425.784 382 425.184L382.132 426H382.984V419.88ZM384.386 417.6V426H385.37V417.6H384.386Z" fill="#9C9CAB"/>
<path d="M411.132 426H412.212L413.1 423.732H416.76L417.648 426H418.764L415.572 417.6H414.336L411.132 426ZM413.412 422.784L414.924 418.74L416.448 422.784H413.412ZM424.699 419.88H423.715V422.94C423.715 423.636 423.547 424.176 423.235 424.572C422.923 424.98 422.479 425.172 421.927 425.172C421.411 425.172 421.015 425.016 420.739 424.68C420.463 424.344 420.331 423.864 420.331 423.228V419.88H419.347V423.288C419.347 424.248 419.563 424.956 420.007 425.4C420.439 425.856 421.027 426.072 421.759 426.072C422.599 426.072 423.247 425.784 423.715 425.184L423.847 426H424.699V419.88ZM431.909 419.88H431.057L430.925 420.936C430.721 420.576 430.445 420.3 430.097 420.108C429.737 419.916 429.317 419.808 428.825 419.808C428.261 419.808 427.757 419.94 427.313 420.204C426.857 420.468 426.509 420.84 426.257 421.308C426.005 421.788 425.885 422.328 425.885 422.94C425.885 423.588 426.005 424.152 426.257 424.62C426.509 425.1 426.857 425.46 427.301 425.7C427.745 425.952 428.249 426.072 428.825 426.072C429.785 426.072 430.481 425.7 430.925 424.944V425.664C430.925 426.96 430.265 427.596 428.945 427.596C428.429 427.596 428.009 427.5 427.685 427.284C427.349 427.08 427.145 426.78 427.073 426.396H426.065C426.137 427.068 426.425 427.572 426.929 427.932C427.433 428.292 428.081 428.472 428.873 428.472C430.889 428.472 431.909 427.548 431.909 425.7V419.88ZM429.965 424.92C429.653 425.112 429.305 425.196 428.921 425.196C428.309 425.196 427.817 424.992 427.445 424.572C427.073 424.152 426.893 423.612 426.893 422.94C426.893 422.28 427.073 421.74 427.445 421.32C427.817 420.9 428.309 420.684 428.921 420.684C429.305 420.684 429.653 420.78 429.965 420.972C430.277 421.164 430.517 421.44 430.685 421.788C430.853 422.136 430.937 422.532 430.937 422.964C430.937 423.396 430.853 423.792 430.685 424.128C430.517 424.464 430.277 424.728 429.965 424.92Z" fill="#9C9CAB"/>
<path d="M458.536 423.252H457.504C457.528 423.804 457.672 424.296 457.936 424.728C458.2 425.16 458.584 425.484 459.076 425.724C459.556 425.964 460.132 426.072 460.792 426.072C461.368 426.072 461.884 425.976 462.34 425.76C462.796 425.556 463.144 425.268 463.396 424.884C463.648 424.512 463.78 424.08 463.78 423.6C463.78 422.868 463.528 422.34 463.024 422.004C462.52 421.668 461.848 421.428 461.008 421.284C460.48 421.2 460.06 421.116 459.76 421.02C459.448 420.924 459.208 420.792 459.016 420.612C458.824 420.432 458.728 420.18 458.728 419.856C458.728 419.424 458.884 419.076 459.22 418.836C459.544 418.596 459.988 418.464 460.552 418.464C461.104 418.464 461.572 418.62 461.956 418.908C462.328 419.208 462.544 419.604 462.616 420.084H463.648C463.612 419.58 463.468 419.136 463.204 418.752C462.94 418.368 462.58 418.056 462.124 417.84C461.668 417.624 461.14 417.516 460.552 417.516C459.988 417.516 459.484 417.624 459.052 417.816C458.62 418.02 458.284 418.308 458.044 418.668C457.804 419.028 457.684 419.448 457.684 419.916C457.684 420.66 457.924 421.188 458.428 421.512C458.92 421.848 459.592 422.076 460.432 422.22C460.96 422.316 461.368 422.4 461.68 422.496C461.992 422.592 462.244 422.724 462.436 422.916C462.628 423.108 462.736 423.372 462.736 423.696C462.736 424.152 462.556 424.5 462.196 424.752C461.836 425.004 461.38 425.124 460.804 425.124C460.156 425.124 459.628 424.956 459.22 424.62C458.8 424.284 458.572 423.828 458.536 423.252ZM465.165 421.296C464.925 421.776 464.805 422.316 464.805 422.94C464.805 423.564 464.925 424.104 465.177 424.584C465.429 425.064 465.789 425.424 466.245 425.688C466.701 425.952 467.229 426.072 467.841 426.072C468.537 426.072 469.125 425.88 469.605 425.484C470.085 425.088 470.385 424.572 470.505 423.948H469.509C469.401 424.344 469.197 424.656 468.885 424.872C468.573 425.088 468.201 425.196 467.769 425.196C467.193 425.196 466.737 425.016 466.389 424.656C466.029 424.296 465.849 423.816 465.837 423.216V423.132H470.589C470.601 422.94 470.613 422.808 470.613 422.712C470.589 422.124 470.457 421.608 470.217 421.164C469.965 420.732 469.629 420.396 469.197 420.156C468.765 419.928 468.261 419.808 467.709 419.808C467.133 419.808 466.629 419.94 466.197 420.204C465.753 420.468 465.405 420.828 465.165 421.296ZM469.593 422.316H465.897C465.945 421.836 466.137 421.44 466.497 421.128C466.845 420.828 467.253 420.672 467.721 420.672C468.237 420.672 468.669 420.816 469.005 421.104C469.341 421.392 469.545 421.8 469.593 422.316ZM476.392 420.18C475.948 419.94 475.444 419.808 474.88 419.808C473.992 419.808 473.284 420.168 472.78 420.864L472.648 419.88H471.796V428.4H472.78V425.064C472.972 425.376 473.248 425.628 473.608 425.808C473.956 425.988 474.376 426.072 474.88 426.072C475.432 426.072 475.936 425.94 476.392 425.676C476.836 425.412 477.184 425.052 477.436 424.572C477.688 424.104 477.82 423.564 477.82 422.94C477.82 422.292 477.688 421.74 477.436 421.26C477.184 420.792 476.836 420.432 476.392 420.18ZM476.248 424.572C475.876 424.992 475.384 425.196 474.784 425.196C474.388 425.196 474.04 425.1 473.728 424.908C473.416 424.716 473.188 424.452 473.02 424.104C472.852 423.756 472.768 423.36 472.768 422.916C472.768 422.484 472.852 422.1 473.02 421.764C473.188 421.428 473.416 421.164 473.728 420.972C474.04 420.78 474.388 420.684 474.784 420.684C475.384 420.684 475.876 420.9 476.248 421.32C476.62 421.74 476.812 422.28 476.812 422.94C476.812 423.612 476.62 424.152 476.248 424.572Z" fill="#9C9CAB"/>
<path d="M511.004 423.996C511.34 423.348 511.52 422.616 511.52 421.8C511.52 420.984 511.34 420.252 511.004 419.604C510.668 418.956 510.188 418.452 509.588 418.08C508.976 417.72 508.28 417.528 507.512 417.528C506.732 417.528 506.036 417.72 505.436 418.08C504.824 418.452 504.344 418.956 504.008 419.604C503.672 420.252 503.504 420.984 503.504 421.8C503.504 422.616 503.672 423.348 504.008 423.996C504.344 424.644 504.824 425.16 505.436 425.52C506.036 425.892 506.732 426.072 507.512 426.072C508.28 426.072 508.976 425.892 509.588 425.52C510.188 425.16 510.668 424.644 511.004 423.996ZM504.944 423.516C504.692 423.012 504.572 422.448 504.572 421.8C504.572 421.164 504.692 420.6 504.944 420.096C505.184 419.592 505.532 419.208 505.976 418.92C506.42 418.632 506.936 418.488 507.512 418.488C508.088 418.488 508.592 418.632 509.036 418.92C509.48 419.208 509.828 419.592 510.08 420.096C510.32 420.6 510.452 421.164 510.452 421.8C510.452 422.448 510.32 423.012 510.08 423.516C509.828 424.02 509.48 424.404 509.036 424.692C508.592 424.98 508.088 425.112 507.512 425.112C506.936 425.112 506.42 424.98 505.976 424.692C505.532 424.404 505.184 424.02 504.944 423.516ZM517.315 425.496C517.783 425.112 518.083 424.572 518.215 423.888H517.231C517.135 424.296 516.943 424.62 516.643 424.848C516.331 425.088 515.959 425.196 515.515 425.196C514.927 425.196 514.447 424.992 514.087 424.572C513.727 424.152 513.547 423.6 513.547 422.928C513.547 422.268 513.727 421.728 514.087 421.308C514.447 420.9 514.927 420.684 515.515 420.684C515.947 420.684 516.307 420.804 516.619 421.032C516.919 421.272 517.123 421.584 517.219 421.968H518.215C518.095 421.296 517.795 420.768 517.327 420.384C516.859 420 516.271 419.808 515.551 419.808C514.951 419.808 514.435 419.94 513.979 420.204C513.523 420.468 513.163 420.828 512.911 421.296C512.659 421.776 512.539 422.316 512.539 422.928C512.539 423.552 512.659 424.092 512.911 424.572C513.151 425.052 513.499 425.412 513.955 425.676C514.399 425.94 514.915 426.072 515.515 426.072C516.235 426.072 516.835 425.88 517.315 425.496ZM519.821 420.78V424.404C519.821 424.956 519.941 425.364 520.181 425.616C520.421 425.88 520.841 426 521.417 426H522.545V425.1H521.477C521.225 425.1 521.045 425.052 520.949 424.944C520.853 424.836 520.805 424.656 520.805 424.392V420.78H522.353V419.88H520.805V418.164H519.821V419.88H518.717V420.78H519.821Z" fill="#9C9CAB"/>
<path d="M547.816 426H548.836V419.52L553.348 426H554.308V417.6H553.288V424.08L548.776 417.6H547.816V426ZM557.089 425.676C557.545 425.94 558.073 426.072 558.673 426.072C559.261 426.072 559.789 425.94 560.245 425.676C560.701 425.412 561.061 425.052 561.325 424.572C561.577 424.104 561.709 423.564 561.709 422.94C561.709 422.328 561.577 421.788 561.325 421.308C561.061 420.84 560.701 420.468 560.245 420.204C559.789 419.94 559.261 419.808 558.673 419.808C558.073 419.808 557.545 419.94 557.089 420.204C556.633 420.468 556.273 420.84 556.021 421.308C555.757 421.788 555.637 422.328 555.637 422.94C555.637 423.564 555.757 424.104 556.021 424.572C556.273 425.052 556.633 425.412 557.089 425.676ZM559.729 424.908C559.417 425.1 559.069 425.196 558.673 425.196C558.265 425.196 557.917 425.1 557.605 424.908C557.293 424.716 557.065 424.452 556.897 424.104C556.729 423.768 556.645 423.372 556.645 422.94C556.645 422.508 556.729 422.124 556.897 421.776C557.065 421.44 557.293 421.164 557.605 420.972C557.917 420.78 558.265 420.684 558.673 420.684C559.069 420.684 559.417 420.78 559.729 420.972C560.041 421.164 560.281 421.44 560.449 421.776C560.617 422.124 560.701 422.508 560.701 422.94C560.701 423.372 560.617 423.768 560.449 424.104C560.281 424.452 560.041 424.716 559.729 424.908ZM562.051 419.88L564.343 426H565.531L567.823 419.88H566.791L564.955 424.884L563.107 419.88H562.051Z" fill="#9C9CAB"/>
<path d="M592.816 417.6V426H595.3C596.164 426 596.908 425.832 597.544 425.484C598.18 425.136 598.672 424.644 599.008 424.008C599.344 423.372 599.524 422.64 599.524 421.8C599.524 420.96 599.344 420.228 599.008 419.592C598.672 418.968 598.18 418.476 597.544 418.128C596.908 417.78 596.164 417.6 595.3 417.6H592.816ZM595.3 425.04H593.86V418.56H595.3C596.308 418.56 597.076 418.86 597.628 419.436C598.18 420.012 598.456 420.804 598.456 421.8C598.456 422.796 598.18 423.588 597.628 424.164C597.076 424.752 596.296 425.04 595.3 425.04ZM600.903 421.296C600.663 421.776 600.543 422.316 600.543 422.94C600.543 423.564 600.663 424.104 600.915 424.584C601.167 425.064 601.527 425.424 601.983 425.688C602.439 425.952 602.967 426.072 603.579 426.072C604.275 426.072 604.863 425.88 605.343 425.484C605.823 425.088 606.123 424.572 606.243 423.948H605.247C605.139 424.344 604.935 424.656 604.623 424.872C604.311 425.088 603.939 425.196 603.507 425.196C602.931 425.196 602.475 425.016 602.127 424.656C601.767 424.296 601.587 423.816 601.575 423.216V423.132H606.327C606.339 422.94 606.351 422.808 606.351 422.712C606.327 422.124 606.195 421.608 605.955 421.164C605.703 420.732 605.367 420.396 604.935 420.156C604.503 419.928 603.999 419.808 603.447 419.808C602.871 419.808 602.367 419.94 601.935 420.204C601.491 420.468 601.143 420.828 600.903 421.296ZM605.331 422.316H601.635C601.683 421.836 601.875 421.44 602.235 421.128C602.583 420.828 602.991 420.672 603.459 420.672C603.975 420.672 604.407 420.816 604.743 421.104C605.079 421.392 605.283 421.8 605.331 422.316ZM612.094 425.496C612.562 425.112 612.862 424.572 612.994 423.888H612.01C611.914 424.296 611.722 424.62 611.422 424.848C611.11 425.088 610.738 425.196 610.294 425.196C609.706 425.196 609.226 424.992 608.866 424.572C608.506 424.152 608.326 423.6 608.326 422.928C608.326 422.268 608.506 421.728 608.866 421.308C609.226 420.9 609.706 420.684 610.294 420.684C610.726 420.684 611.086 420.804 611.398 421.032C611.698 421.272 611.902 421.584 611.998 421.968H612.994C612.874 421.296 612.574 420.768 612.106 420.384C611.638 420 611.05 419.808 610.33 419.808C609.73 419.808 609.214 419.94 608.758 420.204C608.302 420.468 607.942 420.828 607.69 421.296C607.438 421.776 607.318 422.316 607.318 422.928C607.318 423.552 607.438 424.092 607.69 424.572C607.93 425.052 608.278 425.412 608.734 425.676C609.178 425.94 609.694 426.072 610.294 426.072C611.014 426.072 611.614 425.88 612.094 425.496Z" fill="#9C9CAB"/>
<rect x="556" y="209" width="8" height="54" rx="4" fill="#FB3766"/>
<rect x="559" y="201" width="2" height="80" rx="1" fill="#FB3766"/>
<rect x="244" y="225" width="8" height="54" rx="4" fill="#FB3766"/>
<rect x="247" y="217" width="2" height="80" rx="1" fill="#FB3766"/>
<rect x="196" y="206" width="8" height="54" rx="4" fill="#11CF8B"/>
<rect x="199" y="198" width="2" height="80" rx="1" fill="#11CF8B"/>
<rect x="220" y="191" width="8" height="54" rx="4" fill="#11CF8B"/>
<rect x="223" y="183" width="2" height="124" rx="1" fill="#11CF8B"/>
<rect x="124" y="227" width="8" height="54" rx="4" fill="#FB3766"/>
<rect x="127" y="219" width="2" height="103" rx="1" fill="#FB3766"/>
<rect x="388" y="246" width="8" height="54" rx="4" fill="#11CF8B"/>
<rect x="391" y="238" width="2" height="80" rx="1" fill="#11CF8B"/>
<rect x="484" y="211" width="8" height="40" rx="4" fill="#11CF8B"/>
<rect x="487" y="191" width="2" height="80" rx="1" fill="#11CF8B"/>
<rect x="460" y="226" width="8" height="32" rx="4" fill="#11CF8B"/>
<rect x="463" y="166" width="2" height="120" rx="1" fill="#11CF8B"/>
<rect x="364" y="254" width="8" height="27" rx="4" fill="#11CF8B"/>
<rect x="367" y="250" width="2" height="55" rx="1" fill="#11CF8B"/>
<rect x="532" y="203" width="8" height="27" rx="4" fill="#11CF8B"/>
<rect x="535" y="199" width="2" height="55" rx="1" fill="#11CF8B"/>
<rect x="172" y="254" width="8" height="27" rx="4" fill="#FB3766"/>
<rect x="175" y="233" width="2" height="55" rx="1" fill="#FB3766"/>
<rect x="580" y="246" width="8" height="20" rx="4" fill="#11CF8B"/>
<rect x="583" y="239" width="2" height="46" rx="1" fill="#11CF8B"/>
<rect x="268" y="238" width="8" height="20" rx="4" fill="#11CF8B"/>
<rect x="271" y="231" width="2" height="46" rx="1" fill="#11CF8B"/>
<rect x="508" y="204" width="8" height="20" rx="4" fill="#11CF8B"/>
<rect x="511" y="197" width="2" height="46" rx="1" fill="#11CF8B"/>
<rect x="436" y="222" width="8" height="16" rx="4" fill="#FB3766"/>
<rect x="439" y="216" width="2" height="55" rx="1" fill="#FB3766"/>
<rect x="340" y="266" width="8" height="16" rx="4" fill="#FB3766"/>
<rect x="343" y="260" width="2" height="55" rx="1" fill="#FB3766"/>
<rect x="316" y="277" width="8" height="16" rx="4" fill="#FB3766"/>
<rect x="319" y="268" width="2" height="70" rx="1" fill="#FB3766"/>
<rect x="100" y="266" width="8" height="16" rx="4" fill="#11CF8B"/>
<rect x="103" y="244" width="2" height="98" rx="1" fill="#11CF8B"/>
<rect x="412" y="230" width="8" height="16" rx="4" fill="#FB3766"/>
<rect x="415" y="224" width="2" height="40" rx="1" fill="#FB3766"/>
<rect x="148" y="232" width="8" height="16" rx="4" fill="#11CF8B"/>
<rect x="151" y="226" width="2" height="40" rx="1" fill="#11CF8B"/>
<rect x="292" y="283" width="8" height="16" rx="4" fill="#11CF8B"/>
<rect x="295" y="277" width="2" height="40" rx="1" fill="#11CF8B"/>
<defs>
<filter id="filter0_d_407_10206" x="0" y="0" width="800" height="562" filterUnits="userSpaceOnUse" color-interpolation-filters="sRGB">
<feFlood flood-opacity="0" result="BackgroundImageFix"/>
<feColorMatrix in="SourceAlpha" type="matrix" values="0 0 0 0 0 0 0 0 0 0 0 0 0 0 0 0 0 0 127 0" result="hardAlpha"/>
<feOffset dx="20" dy="20"/>
<feGaussianBlur stdDeviation="40"/>
<feComposite in2="hardAlpha" operator="out"/>
<feColorMatrix type="matrix" values="0 0 0 0 0.321569 0 0 0 0 0.207843 0 0 0 0 0.909804 0 0 0 0.1 0"/>
<feBlend mode="normal" in2="BackgroundImageFix" result="effect1_dropShadow_407_10206"/>
<feBlend mode="normal" in="SourceGraphic" in2="effect1_dropShadow_407_10206" result="shape"/>
</filter>
</defs>
</svg>
