<svg width="21" height="20" viewBox="0 0 21 20" fill="none" xmlns="http://www.w3.org/2000/svg">
<g clip-path="url(#clip0)">
<path d="M10.998 20C16.5209 20 20.998 15.5228 20.998 10C20.998 4.47715 16.5209 0 10.998 0C5.4752 0 0.998047 4.47715 0.998047 10C0.998047 15.5228 5.4752 20 10.998 20Z" fill="#2573C2"/>
<path d="M17.5242 7.36798C17.5108 7.14389 17.445 6.92607 17.3322 6.73199C17.2322 6.53199 17.0542 6.37599 16.8462 6.29599C16.6341 6.19028 16.3991 6.13875 16.1622 6.146H7.28612L6.65011 8.05197H14.6922L13.4222 11.9479H5.3821L4.74609 13.8539H13.6642C13.9299 13.8462 14.1926 13.7955 14.4422 13.7039C14.6922 13.5619 14.9782 13.4179 15.2202 13.2179C15.4565 13.0316 15.6699 12.8182 15.8562 12.5819C16.0102 12.3504 16.1414 12.1046 16.2482 11.8479L17.4262 8.14396C17.5334 7.90026 17.5674 7.63067 17.5242 7.36798Z" fill="white"/>
<path d="M9.81911 9.116H5.08716L4.45117 10.8781H9.23112L9.81911 9.116Z" fill="white"/>
</g>
<defs>
<clipPath id="clip0">
<rect x="0.998047" width="20" height="20" fill="white"/>
</clipPath>
</defs>
</svg>
